<?xml version="1.0" encoding="UTF-8" standalone="no"?>
<!DOCTYPE svg PUBLIC "-//W3C//DTD SVG 1.1//EN"
 "http://www.w3.org/Graphics/SVG/1.1/DTD/svg11.dtd">
<!-- Generated by graphviz version 2.38.0 (20140413.2041)
 -->
<!-- Title: IControl Pages: 1 -->
<svg width="260pt" height="1826pt"
 viewBox="0.00 0.00 260.00 1826.00" xmlns="http://www.w3.org/2000/svg" xmlns:xlink="http://www.w3.org/1999/xlink">
<g id="graph0" class="graph" transform="scale(1 1) rotate(0) translate(4 1822)">
<title>IControl</title>
<polygon fill="white" stroke="none" points="-4,4 -4,-1822 256,-1822 256,4 -4,4"/>
<!-- Node1 -->
<g id="node1" class="node"><title>Node1</title>
<polygon fill="#bfbfbf" stroke="black" points="0,-905.5 0,-924.5 53,-924.5 53,-905.5 0,-905.5"/>
<text text-anchor="middle" x="26.5" y="-912.5" font-family="Helvetica,sans-Serif" font-size="10.00">IControl</text>
</g>
<!-- Node2 -->
<g id="node2" class="node"><title>Node2</title>
<g id="a_node2"><a xlink:href="class_g_f_x_label_control.html" target="_top" xlink:title="Control to display the graphics backend. ">
<polygon fill="white" stroke="black" points="123,-1798.5 123,-1817.5 218,-1817.5 218,-1798.5 123,-1798.5"/>
<text text-anchor="middle" x="170.5" y="-1805.5" font-family="Helvetica,sans-Serif" font-size="10.00">GFXLabelControl</text>
</a>
</g>
</g>
<!-- Node1&#45;&gt;Node2 -->
<g id="edge1" class="edge"><title>Node1&#45;&gt;Node2</title>
<path fill="none" stroke="midnightblue" d="M27.5134,-934.807C27.775,-1058.5 31.8484,-1721.78 89,-1789 97.4644,-1798.96 110.083,-1804.23 122.833,-1806.9"/>
<polygon fill="midnightblue" stroke="midnightblue" points="31.0131,-934.554 27.4983,-924.56 24.0131,-934.565 31.0131,-934.554"/>
</g>
<!-- Node3 -->
<g id="node3" class="node"><title>Node3</title>
<g id="a_node3"><a xlink:href="class_i_bitmap_control.html" target="_top" xlink:title="A basic control to draw a bitmap, or one frame of a stacked bitmap depending on the current value...">
<polygon fill="white" stroke="red" points="126.5,-1760.5 126.5,-1779.5 214.5,-1779.5 214.5,-1760.5 126.5,-1760.5"/>
<text text-anchor="middle" x="170.5" y="-1767.5" font-family="Helvetica,sans-Serif" font-size="10.00">IBitmapControl</text>
</a>
</g>
</g>
<!-- Node1&#45;&gt;Node3 -->
<g id="edge2" class="edge"><title>Node1&#45;&gt;Node3</title>
<path fill="none" stroke="midnightblue" d="M27.5799,-934.696C28.2443,-1054.92 34.3328,-1686.91 89,-1751 98.2257,-1761.82 112.355,-1767.11 126.215,-1769.53"/>
<polygon fill="midnightblue" stroke="midnightblue" points="31.0799,-934.678 27.531,-924.695 24.08,-934.712 31.0799,-934.678"/>
</g>
<!-- Node4 -->
<g id="node4" class="node"><title>Node4</title>
<g id="a_node4"><a xlink:href="class_i_bubble_control.html" target="_top" xlink:title="A special control to draw contextual info as a slider etc is moved If used in the main IControl stack...">
<polygon fill="white" stroke="black" points="127.5,-1722.5 127.5,-1741.5 213.5,-1741.5 213.5,-1722.5 127.5,-1722.5"/>
<text text-anchor="middle" x="170.5" y="-1729.5" font-family="Helvetica,sans-Serif" font-size="10.00">IBubbleControl</text>
</a>
</g>
</g>
<!-- Node1&#45;&gt;Node4 -->
<g id="edge3" class="edge"><title>Node1&#45;&gt;Node4</title>
<path fill="none" stroke="midnightblue" d="M27.6545,-934.87C28.7458,-1052.26 36.8576,-1652.09 89,-1713 98.5247,-1724.13 113.239,-1729.4 127.495,-1731.73"/>
<polygon fill="midnightblue" stroke="midnightblue" points="31.1515,-934.493 27.5654,-924.523 24.1518,-934.553 31.1515,-934.493"/>
</g>
<!-- Node5 -->
<g id="node5" class="node"><title>Node5</title>
<g id="a_node5"><a xlink:href="class_i_button_control_base.html" target="_top" xlink:title="A base class for buttons/momentary switches &#45; cannot be linked to parameters. ">
<polygon fill="white" stroke="red" points="115.5,-1684.5 115.5,-1703.5 225.5,-1703.5 225.5,-1684.5 115.5,-1684.5"/>
<text text-anchor="middle" x="170.5" y="-1691.5" font-family="Helvetica,sans-Serif" font-size="10.00">IButtonControlBase</text>
</a>
</g>
</g>
<!-- Node1&#45;&gt;Node5 -->
<g id="edge4" class="edge"><title>Node1&#45;&gt;Node5</title>
<path fill="none" stroke="midnightblue" d="M27.7324,-934.635C29.2514,-1048.13 39.3188,-1617.19 89,-1675 95.8319,-1682.95 105.313,-1687.91 115.378,-1690.94"/>
<polygon fill="midnightblue" stroke="midnightblue" points="31.2316,-934.547 27.6048,-924.592 24.2322,-934.636 31.2316,-934.547"/>
</g>
<!-- Node6 -->
<g id="node6" class="node"><title>Node6</title>
<g id="a_node6"><a xlink:href="class_i_color_picker_control.html" target="_top" xlink:title="A control for choosing a color. ">
<polygon fill="white" stroke="black" points="117,-1646.5 117,-1665.5 224,-1665.5 224,-1646.5 117,-1646.5"/>
<text text-anchor="middle" x="170.5" y="-1653.5" font-family="Helvetica,sans-Serif" font-size="10.00">IColorPickerControl</text>
</a>
</g>
</g>
<!-- Node1&#45;&gt;Node6 -->
<g id="edge5" class="edge"><title>Node1&#45;&gt;Node6</title>
<path fill="none" stroke="midnightblue" d="M27.8214,-934.673C29.7974,-1044.85 41.8172,-1582.33 89,-1637 96.1302,-1645.26 106.122,-1650.29 116.647,-1653.28"/>
<polygon fill="midnightblue" stroke="midnightblue" points="31.3201,-934.56 27.6483,-924.622 24.3211,-934.681 31.3201,-934.56"/>
</g>
<!-- Node7 -->
<g id="node7" class="node"><title>Node7</title>
<g id="a_node7"><a xlink:href="class_i_corner_resizer_control.html" target="_top" xlink:title="A control for resizing the plug&#45;in window by clicking and dragging in the bottom right&#45;hand corner Th...">
<polygon fill="white" stroke="black" points="111,-1608.5 111,-1627.5 230,-1627.5 230,-1608.5 111,-1608.5"/>
<text text-anchor="middle" x="170.5" y="-1615.5" font-family="Helvetica,sans-Serif" font-size="10.00">ICornerResizerControl</text>
</a>
</g>
</g>
<!-- Node1&#45;&gt;Node7 -->
<g id="edge6" class="edge"><title>Node1&#45;&gt;Node7</title>
<path fill="none" stroke="midnightblue" d="M27.9186,-934.626C30.367,-1041.2 44.3001,-1547.45 89,-1599 94.8325,-1605.73 102.562,-1610.31 110.927,-1613.39"/>
<polygon fill="midnightblue" stroke="midnightblue" points="31.4175,-934.53 27.6958,-924.61 24.4192,-934.686 31.4175,-934.53"/>
</g>
<!-- Node8 -->
<g id="node8" class="node"><title>Node8</title>
<g id="a_node8"><a xlink:href="class_i_dir_browse_control_base.html" target="_top" xlink:title="An abstract IControl base class that you can inherit from in order to make a control that pops up a m...">
<polygon fill="white" stroke="red" points="108,-1570.5 108,-1589.5 233,-1589.5 233,-1570.5 108,-1570.5"/>
<text text-anchor="middle" x="170.5" y="-1577.5" font-family="Helvetica,sans-Serif" font-size="10.00">IDirBrowseControlBase</text>
</a>
</g>
</g>
<!-- Node1&#45;&gt;Node8 -->
<g id="edge7" class="edge"><title>Node1&#45;&gt;Node8</title>
<path fill="none" stroke="midnightblue" d="M28.0336,-934.818C30.9933,-1038.18 46.812,-1512.6 89,-1561 94.0953,-1566.85 100.623,-1571.07 107.752,-1574.1"/>
<polygon fill="midnightblue" stroke="midnightblue" points="31.5317,-934.698 27.7543,-924.8 24.5344,-934.893 31.5317,-934.698"/>
</g>
<!-- Node9 -->
<g id="node9" class="node"><title>Node9</title>
<g id="a_node9"><a xlink:href="class_i_f_p_s_display_control.html" target="_top" xlink:title="Performance display meter, based on code from NanoVG This is a special control that lives outside the...">
<polygon fill="white" stroke="black" points="117.5,-1532.5 117.5,-1551.5 223.5,-1551.5 223.5,-1532.5 117.5,-1532.5"/>
<text text-anchor="middle" x="170.5" y="-1539.5" font-family="Helvetica,sans-Serif" font-size="10.00">IFPSDisplayControl</text>
</a>
</g>
</g>
<!-- Node1&#45;&gt;Node9 -->
<g id="edge8" class="edge"><title>Node1&#45;&gt;Node9</title>
<path fill="none" stroke="midnightblue" d="M28.16,-934.881C31.6488,-1034.65 49.3015,-1477.73 89,-1523 96.2901,-1531.31 106.477,-1536.34 117.16,-1539.32"/>
<polygon fill="midnightblue" stroke="midnightblue" points="31.6514,-934.566 27.8118,-924.691 24.6555,-934.805 31.6514,-934.566"/>
</g>
<!-- Node10 -->
<g id="node10" class="node"><title>Node10</title>
<g id="a_node10"><a xlink:href="class_i_graphics_live_edit.html" target="_top" xlink:title="A control to enable live modification of control layout in an IGraphics context in debug builds This ...">
<polygon fill="white" stroke="black" points="121.5,-1494.5 121.5,-1513.5 219.5,-1513.5 219.5,-1494.5 121.5,-1494.5"/>
<text text-anchor="middle" x="170.5" y="-1501.5" font-family="Helvetica,sans-Serif" font-size="10.00">IGraphicsLiveEdit</text>
</a>
</g>
</g>
<!-- Node1&#45;&gt;Node10 -->
<g id="edge9" class="edge"><title>Node1&#45;&gt;Node10</title>
<path fill="none" stroke="midnightblue" d="M28.2864,-934.53C32.2948,-1029.79 51.7323,-1442.79 89,-1485 97.2681,-1494.37 109.214,-1499.56 121.382,-1502.34"/>
<polygon fill="midnightblue" stroke="midnightblue" points="31.7833,-934.382 27.8739,-924.535 24.7893,-934.671 31.7833,-934.382"/>
</g>
<!-- Node11 -->
<g id="node11" class="node"><title>Node11</title>
<g id="a_node11"><a xlink:href="class_i_knob_control_base.html" target="_top" xlink:title="A base class for knob/dial controls, to handle mouse action and Sender. ">
<polygon fill="white" stroke="red" points="120,-1456.5 120,-1475.5 221,-1475.5 221,-1456.5 120,-1456.5"/>
<text text-anchor="middle" x="170.5" y="-1463.5" font-family="Helvetica,sans-Serif" font-size="10.00">IKnobControlBase</text>
</a>
</g>
</g>
<!-- Node1&#45;&gt;Node11 -->
<g id="edge10" class="edge"><title>Node1&#45;&gt;Node11</title>
<path fill="none" stroke="midnightblue" d="M28.4651,-934.94C33.0961,-1026.98 54.2566,-1407.95 89,-1447 96.9219,-1455.9 108.169,-1461.03 119.752,-1463.9"/>
<polygon fill="midnightblue" stroke="midnightblue" points="31.9517,-934.58 27.9619,-924.765 24.9602,-934.926 31.9517,-934.58"/>
</g>
<!-- Node12 -->
<g id="node12" class="node"><title>Node12</title>
<g id="a_node12"><a xlink:href="class_i_lambda_control.html" target="_top" xlink:title="A control that can be specialised with a lambda function, for quick experiments without making a cust...">
<polygon fill="white" stroke="black" points="124.5,-1418.5 124.5,-1437.5 216.5,-1437.5 216.5,-1418.5 124.5,-1418.5"/>
<text text-anchor="middle" x="170.5" y="-1425.5" font-family="Helvetica,sans-Serif" font-size="10.00">ILambdaControl</text>
</a>
</g>
</g>
<!-- Node1&#45;&gt;Node12 -->
<g id="edge11" class="edge"><title>Node1&#45;&gt;Node12</title>
<path fill="none" stroke="midnightblue" d="M27.0765,-934.986C25.731,-1018.38 24.9067,-1337.59 89,-1409 98.0159,-1419.05 111.264,-1424.28 124.421,-1426.87"/>
<polygon fill="midnightblue" stroke="midnightblue" points="30.5786,-934.897 27.2631,-924.834 23.5798,-934.768 30.5786,-934.897"/>
</g>
<!-- Node13 -->
<g id="node13" class="node"><title>Node13</title>
<g id="a_node13"><a xlink:href="class_i_l_e_d_control.html" target="_top" xlink:title="Glowing LED control. ">
<polygon fill="white" stroke="black" points="134.5,-1380.5 134.5,-1399.5 206.5,-1399.5 206.5,-1380.5 134.5,-1380.5"/>
<text text-anchor="middle" x="170.5" y="-1387.5" font-family="Helvetica,sans-Serif" font-size="10.00">ILEDControl</text>
</a>
</g>
</g>
<!-- Node1&#45;&gt;Node13 -->
<g id="edge12" class="edge"><title>Node1&#45;&gt;Node13</title>
<path fill="none" stroke="midnightblue" d="M27.3077,-934.95C26.9625,-1014.21 29.8003,-1305.71 89,-1371 100.382,-1383.55 118.375,-1388.57 134.465,-1390.33"/>
<polygon fill="midnightblue" stroke="midnightblue" points="30.8082,-934.871 27.3754,-924.848 23.8084,-934.824 30.8082,-934.871"/>
</g>
<!-- Node14 -->
<g id="node14" class="node"><title>Node14</title>
<g id="a_node14"><a xlink:href="class_i_panel_control.html" target="_top" xlink:title="A basic control to fill a rectangle with a color or gradient. ">
<polygon fill="white" stroke="black" points="131,-1342.5 131,-1361.5 210,-1361.5 210,-1342.5 131,-1342.5"/>
<text text-anchor="middle" x="170.5" y="-1349.5" font-family="Helvetica,sans-Serif" font-size="10.00">IPanelControl</text>
</a>
</g>
</g>
<!-- Node1&#45;&gt;Node14 -->
<g id="edge13" class="edge"><title>Node1&#45;&gt;Node14</title>
<path fill="none" stroke="midnightblue" d="M27.5813,-935.174C28.306,-1010.49 34.7418,-1273.88 89,-1333 99.5834,-1344.53 115.748,-1349.69 130.823,-1351.81"/>
<polygon fill="midnightblue" stroke="midnightblue" points="31.0784,-934.737 27.5076,-924.762 24.0786,-934.787 31.0784,-934.737"/>
</g>
<!-- Node15 -->
<g id="node15" class="node"><title>Node15</title>
<g id="a_node15"><a xlink:href="class_i_popup_menu_control.html" target="_top" xlink:title="A base control for a pop&#45;up menu/drop&#45;down list that stays within the bounds of the IGraphics context...">
<polygon fill="white" stroke="black" points="115.5,-1304.5 115.5,-1323.5 225.5,-1323.5 225.5,-1304.5 115.5,-1304.5"/>
<text text-anchor="middle" x="170.5" y="-1311.5" font-family="Helvetica,sans-Serif" font-size="10.00">IPopupMenuControl</text>
</a>
</g>
</g>
<!-- Node1&#45;&gt;Node15 -->
<g id="edge14" class="edge"><title>Node1&#45;&gt;Node15</title>
<path fill="none" stroke="midnightblue" d="M27.8967,-934.689C29.7198,-1004.93 39.4972,-1241.83 89,-1295 96.0454,-1302.57 105.495,-1307.38 115.44,-1310.39"/>
<polygon fill="midnightblue" stroke="midnightblue" points="31.3929,-934.484 27.6606,-924.568 24.3948,-934.647 31.3929,-934.484"/>
</g>
<!-- Node16 -->
<g id="node16" class="node"><title>Node16</title>
<g id="a_node16"><a xlink:href="class_i_slider_control_base.html" target="_top" xlink:title="A base class for slider/fader controls, to handle mouse action and Sender. ">
<polygon fill="white" stroke="red" points="118.5,-1266.5 118.5,-1285.5 222.5,-1285.5 222.5,-1266.5 118.5,-1266.5"/>
<text text-anchor="middle" x="170.5" y="-1273.5" font-family="Helvetica,sans-Serif" font-size="10.00">ISliderControlBase</text>
</a>
</g>
</g>
<!-- Node1&#45;&gt;Node16 -->
<g id="edge15" class="edge"><title>Node1&#45;&gt;Node16</title>
<path fill="none" stroke="midnightblue" d="M28.2911,-934.806C31.3235,-1000.53 44.3764,-1209.91 89,-1257 96.8026,-1265.23 107.456,-1270.2 118.457,-1273.12"/>
<polygon fill="midnightblue" stroke="midnightblue" points="31.778,-934.427 27.8486,-924.587 24.7846,-934.729 31.778,-934.427"/>
</g>
<!-- Node17 -->
<g id="node17" class="node"><title>Node17</title>
<g id="a_node17"><a xlink:href="class_i_s_v_g_control.html" target="_top" xlink:title="A basic control to draw an SVG image to the screen. ">
<polygon fill="white" stroke="black" points="133.5,-1228.5 133.5,-1247.5 207.5,-1247.5 207.5,-1228.5 133.5,-1228.5"/>
<text text-anchor="middle" x="170.5" y="-1235.5" font-family="Helvetica,sans-Serif" font-size="10.00">ISVGControl</text>
</a>
</g>
</g>
<!-- Node1&#45;&gt;Node17 -->
<g id="edge16" class="edge"><title>Node1&#45;&gt;Node17</title>
<path fill="none" stroke="midnightblue" d="M28.7875,-934.947C33.127,-995.882 49.2351,-1177.93 89,-1219 100.388,-1230.76 117.597,-1235.81 133.184,-1237.8"/>
<polygon fill="midnightblue" stroke="midnightblue" points="32.2641,-934.484 28.0919,-924.745 25.2803,-934.96 32.2641,-934.484"/>
</g>
<!-- Node18 -->
<g id="node18" class="node"><title>Node18</title>
<g id="a_node18"><a xlink:href="class_i_switch_control_base.html" target="_top" xlink:title="A base class for switch controls. ">
<polygon fill="white" stroke="red" points="116.5,-1190.5 116.5,-1209.5 224.5,-1209.5 224.5,-1190.5 116.5,-1190.5"/>
<text text-anchor="middle" x="170.5" y="-1197.5" font-family="Helvetica,sans-Serif" font-size="10.00">ISwitchControlBase</text>
</a>
</g>
</g>
<!-- Node1&#45;&gt;Node18 -->
<g id="edge17" class="edge"><title>Node1&#45;&gt;Node18</title>
<path fill="none" stroke="midnightblue" d="M29.4139,-934.956C35.1555,-990.631 54.035,-1145.87 89,-1181 96.3953,-1188.43 106.119,-1193.17 116.241,-1196.14"/>
<polygon fill="midnightblue" stroke="midnightblue" points="32.8628,-934.269 28.387,-924.666 25.8974,-934.964 32.8628,-934.269"/>
</g>
<!-- Node19 -->
<g id="node19" class="node"><title>Node19</title>
<g id="a_node19"><a xlink:href="class_i_text_control.html" target="_top" xlink:title="A basic control to display some text. ">
<polygon fill="white" stroke="red" points="134.5,-1152.5 134.5,-1171.5 206.5,-1171.5 206.5,-1152.5 134.5,-1152.5"/>
<text text-anchor="middle" x="170.5" y="-1159.5" font-family="Helvetica,sans-Serif" font-size="10.00">ITextControl</text>
</a>
</g>
</g>
<!-- Node1&#45;&gt;Node19 -->
<g id="edge18" class="edge"><title>Node1&#45;&gt;Node19</title>
<path fill="none" stroke="midnightblue" d="M30.2041,-934.7C37.4352,-984.525 58.7457,-1113.69 89,-1143 100.964,-1154.59 118.614,-1159.58 134.34,-1161.57"/>
<polygon fill="midnightblue" stroke="midnightblue" points="33.6395,-933.996 28.773,-924.585 26.7085,-934.977 33.6395,-933.996"/>
</g>
<!-- Node20 -->
<g id="node20" class="node"><title>Node20</title>
<g id="a_node20"><a xlink:href="class_i_text_entry_control.html" target="_top" xlink:title="A Text entry widget drawn by IGraphics. ">
<polygon fill="white" stroke="black" points="122,-1114.5 122,-1133.5 219,-1133.5 219,-1114.5 122,-1114.5"/>
<text text-anchor="middle" x="170.5" y="-1121.5" font-family="Helvetica,sans-Serif" font-size="10.00">ITextEntryControl</text>
</a>
</g>
</g>
<!-- Node1&#45;&gt;Node20 -->
<g id="edge19" class="edge"><title>Node1&#45;&gt;Node20</title>
<path fill="none" stroke="midnightblue" d="M27.8742,-935.05C29.7339,-973.859 39.562,-1059.42 89,-1105 97.9742,-1113.27 109.864,-1118.15 121.743,-1120.97"/>
<polygon fill="midnightblue" stroke="midnightblue" points="31.3568,-934.478 27.5179,-924.603 24.3609,-934.717 31.3568,-934.478"/>
</g>
<!-- Node21 -->
<g id="node21" class="node"><title>Node21</title>
<g id="a_node21"><a xlink:href="class_i_v_baked_preset_manager_control.html" target="_top" xlink:title="A &quot;meta control&quot; for a &quot;preset manager&quot; for &quot;baked in&quot; factory presets It adds several child buttons...">
<polygon fill="white" stroke="black" points="89,-1076.5 89,-1095.5 252,-1095.5 252,-1076.5 89,-1076.5"/>
<text text-anchor="middle" x="170.5" y="-1083.5" font-family="Helvetica,sans-Serif" font-size="10.00">IVBakedPresetManagerControl</text>
</a>
</g>
</g>
<!-- Node1&#45;&gt;Node21 -->
<g id="edge20" class="edge"><title>Node1&#45;&gt;Node21</title>
<path fill="none" stroke="midnightblue" d="M29.6927,-934.643C34.4113,-967.241 48.6063,-1032.35 89,-1067 93.4685,-1070.83 98.5704,-1073.93 103.988,-1076.42"/>
<polygon fill="midnightblue" stroke="midnightblue" points="33.1441,-934.041 28.3915,-924.572 26.2018,-934.938 33.1441,-934.041"/>
</g>
<!-- Node22 -->
<g id="node22" class="node"><title>Node22</title>
<g id="a_node22"><a xlink:href="class_i_v_color_swatch_control.html" target="_top" xlink:title="A control to show a colour swatch of up to 9 colous. ">
<polygon fill="white" stroke="black" points="111,-1038.5 111,-1057.5 230,-1057.5 230,-1038.5 111,-1038.5"/>
<text text-anchor="middle" x="170.5" y="-1045.5" font-family="Helvetica,sans-Serif" font-size="10.00">IVColorSwatchControl</text>
</a>
</g>
</g>
<!-- Node1&#45;&gt;Node22 -->
<g id="edge21" class="edge"><title>Node1&#45;&gt;Node22</title>
<path fill="none" stroke="midnightblue" d="M32.5772,-934.442C40.3226,-960.133 57.6085,-1004.94 89,-1029 95.4965,-1033.98 103.091,-1037.68 110.972,-1040.43"/>
<polygon fill="midnightblue" stroke="midnightblue" points="35.9167,-933.388 29.8285,-924.717 29.1806,-935.292 35.9167,-933.388"/>
</g>
<!-- Node23 -->
<g id="node23" class="node"><title>Node23</title>
<g id="a_node23"><a xlink:href="class_i_v_display_control.html" target="_top" xlink:title="A control to display a rolling graphics of historical values. ">
<polygon fill="white" stroke="black" points="123,-1000.5 123,-1019.5 218,-1019.5 218,-1000.5 123,-1000.5"/>
<text text-anchor="middle" x="170.5" y="-1007.5" font-family="Helvetica,sans-Serif" font-size="10.00">IVDisplayControl</text>
</a>
</g>
</g>
<!-- Node1&#45;&gt;Node23 -->
<g id="edge22" class="edge"><title>Node1&#45;&gt;Node23</title>
<path fill="none" stroke="midnightblue" d="M37.5306,-933.404C48.0463,-950.921 66.2047,-976.673 89,-991 99.0909,-997.342 111.101,-1001.57 122.724,-1004.39"/>
<polygon fill="midnightblue" stroke="midnightblue" points="40.5127,-931.569 32.4939,-924.644 34.4442,-935.058 40.5127,-931.569"/>
</g>
<!-- Node24 -->
<g id="node24" class="node"><title>Node24</title>
<g id="a_node24"><a xlink:href="class_i_v_group_control.html" target="_top" xlink:title="A control to draw a rectangle around a named IControl group. ">
<polygon fill="white" stroke="black" points="126,-962.5 126,-981.5 215,-981.5 215,-962.5 126,-962.5"/>
<text text-anchor="middle" x="170.5" y="-969.5" font-family="Helvetica,sans-Serif" font-size="10.00">IVGroupControl</text>
</a>
</g>
</g>
<!-- Node1&#45;&gt;Node24 -->
<g id="edge23" class="edge"><title>Node1&#45;&gt;Node24</title>
<path fill="none" stroke="midnightblue" d="M48.9188,-930.611C60.3388,-938.307 74.9093,-947.165 89,-953 100.542,-957.78 113.537,-961.505 125.663,-964.341"/>
<polygon fill="midnightblue" stroke="midnightblue" points="50.7151,-927.598 40.5049,-924.768 46.7223,-933.347 50.7151,-927.598"/>
</g>
<!-- Node25 -->
<g id="node25" class="node"><title>Node25</title>
<g id="a_node25"><a xlink:href="class_i_v_keyboard_control.html" target="_top" xlink:title="Vectorial keyboard control. ">
<polygon fill="white" stroke="black" points="118.5,-924.5 118.5,-943.5 222.5,-943.5 222.5,-924.5 118.5,-924.5"/>
<text text-anchor="middle" x="170.5" y="-931.5" font-family="Helvetica,sans-Serif" font-size="10.00">IVKeyboardControl</text>
</a>
</g>
</g>
<!-- Node1&#45;&gt;Node25 -->
<g id="edge24" class="edge"><title>Node1&#45;&gt;Node25</title>
<path fill="none" stroke="midnightblue" d="M63.5954,-919.83C80.2204,-922.054 100.244,-924.733 118.384,-927.161"/>
<polygon fill="midnightblue" stroke="midnightblue" points="63.591,-916.298 53.2151,-918.441 62.6626,-923.236 63.591,-916.298"/>
</g>
<!-- Node26 -->
<g id="node26" class="node"><title>Node26</title>
<g id="a_node26"><a xlink:href="class_i_v_number_box_control.html" target="_top" xlink:title="A &quot;meta control&quot; for a number box with an Inc/Dec button It adds several child buttons. ">
<polygon fill="white" stroke="black" points="112,-886.5 112,-905.5 229,-905.5 229,-886.5 112,-886.5"/>
<text text-anchor="middle" x="170.5" y="-893.5" font-family="Helvetica,sans-Serif" font-size="10.00">IVNumberBoxControl</text>
</a>
</g>
</g>
<!-- Node1&#45;&gt;Node26 -->
<g id="edge25" class="edge"><title>Node1&#45;&gt;Node26</title>
<path fill="none" stroke="midnightblue" d="M63.3946,-910.197C78.0981,-908.23 95.4856,-905.903 111.885,-903.709"/>
<polygon fill="midnightblue" stroke="midnightblue" points="62.6626,-906.764 53.2151,-911.559 63.591,-913.702 62.6626,-906.764"/>
</g>
<!-- Node27 -->
<g id="node27" class="node"><title>Node27</title>
<g id="a_node27"><a xlink:href="class_i_v_panel_control.html" target="_top" xlink:title="A panel control which can be styled with emboss etc. ">
<polygon fill="white" stroke="black" points="127.5,-848.5 127.5,-867.5 213.5,-867.5 213.5,-848.5 127.5,-848.5"/>
<text text-anchor="middle" x="170.5" y="-855.5" font-family="Helvetica,sans-Serif" font-size="10.00">IVPanelControl</text>
</a>
</g>
</g>
<!-- Node1&#45;&gt;Node27 -->
<g id="edge26" class="edge"><title>Node1&#45;&gt;Node27</title>
<path fill="none" stroke="midnightblue" d="M48.9188,-899.389C60.3388,-891.693 74.9093,-882.835 89,-877 101.073,-872 114.735,-868.154 127.33,-865.273"/>
<polygon fill="midnightblue" stroke="midnightblue" points="46.7223,-896.653 40.5049,-905.232 50.7151,-902.402 46.7223,-896.653"/>
</g>
<!-- Node28 -->
<g id="node28" class="node"><title>Node28</title>
<g id="a_node28"><a xlink:href="class_i_v_plot_control.html" target="_top" xlink:title="a vector plot to display functions and waveforms ">
<polygon fill="white" stroke="black" points="131.5,-810.5 131.5,-829.5 209.5,-829.5 209.5,-810.5 131.5,-810.5"/>
<text text-anchor="middle" x="170.5" y="-817.5" font-family="Helvetica,sans-Serif" font-size="10.00">IVPlotControl</text>
</a>
</g>
</g>
<!-- Node1&#45;&gt;Node28 -->
<g id="edge27" class="edge"><title>Node1&#45;&gt;Node28</title>
<path fill="none" stroke="midnightblue" d="M37.5306,-896.596C48.0463,-879.079 66.2047,-853.327 89,-839 101.644,-831.053 117.3,-826.427 131.435,-823.736"/>
<polygon fill="midnightblue" stroke="midnightblue" points="34.4442,-894.942 32.4939,-905.356 40.5127,-898.431 34.4442,-894.942"/>
</g>
<!-- Node29 -->
<g id="node29" class="node"><title>Node29</title>
<g id="a_node29"><a xlink:href="class_i_v_scope_control.html" target="_top" xlink:title="Vectorial multichannel capable oscilloscope control. ">
<polygon fill="white" stroke="black" points="100.5,-761 100.5,-791 240.5,-791 240.5,-761 100.5,-761"/>
<text text-anchor="start" x="108.5" y="-779" font-family="Helvetica,sans-Serif" font-size="10.00">IVScopeControl&lt; MAXNC,</text>
<text text-anchor="middle" x="170.5" y="-768" font-family="Helvetica,sans-Serif" font-size="10.00"> MAXBUF &gt;</text>
</a>
</g>
</g>
<!-- Node1&#45;&gt;Node29 -->
<g id="edge28" class="edge"><title>Node1&#45;&gt;Node29</title>
<path fill="none" stroke="midnightblue" d="M32.9359,-895.533C41.0138,-870.143 58.5976,-826.02 89,-801 93.7458,-797.094 99.1012,-793.797 104.738,-791.014"/>
<polygon fill="midnightblue" stroke="midnightblue" points="29.4814,-894.869 29.9634,-905.452 36.1868,-896.878 29.4814,-894.869"/>
</g>
<!-- Node30 -->
<g id="node30" class="node"><title>Node30</title>
<g id="a_node30"><a xlink:href="class_i_v_track_control_base.html" target="_top" xlink:title="A base class for mult&#45;strip/track controls, such as multi&#45;sliders, meters. ">
<polygon fill="white" stroke="red" points="116.5,-722.5 116.5,-741.5 224.5,-741.5 224.5,-722.5 116.5,-722.5"/>
<text text-anchor="middle" x="170.5" y="-729.5" font-family="Helvetica,sans-Serif" font-size="10.00">IVTrackControlBase</text>
</a>
</g>
</g>
<!-- Node1&#45;&gt;Node30 -->
<g id="edge29" class="edge"><title>Node1&#45;&gt;Node30</title>
<path fill="none" stroke="midnightblue" d="M29.1747,-894.975C33.163,-860.481 46.3534,-789.917 89,-752 96.641,-745.206 106.236,-740.643 116.113,-737.595"/>
<polygon fill="midnightblue" stroke="midnightblue" points="25.6656,-894.89 28.1456,-905.191 32.6303,-895.592 25.6656,-894.89"/>
</g>
<!-- Node31 -->
<g id="node31" class="node"><title>Node31</title>
<g id="a_node31"><a xlink:href="class_i_v_x_y_pad_control.html" target="_top" xlink:title="A vector XY Pad slider control. ">
<polygon fill="white" stroke="black" points="126,-684.5 126,-703.5 215,-703.5 215,-684.5 126,-684.5"/>
<text text-anchor="middle" x="170.5" y="-691.5" font-family="Helvetica,sans-Serif" font-size="10.00">IVXYPadControl</text>
</a>
</g>
</g>
<!-- Node1&#45;&gt;Node31 -->
<g id="edge30" class="edge"><title>Node1&#45;&gt;Node31</title>
<path fill="none" stroke="midnightblue" d="M27.4145,-895.079C28.3787,-854.551 36.5723,-762.187 89,-713 98.9487,-703.666 112.599,-698.643 125.834,-696.017"/>
<polygon fill="midnightblue" stroke="midnightblue" points="23.9128,-895.228 27.3041,-905.265 30.9124,-895.304 23.9128,-895.228"/>
</g>
<!-- Node32 -->
<g id="node32" class="node"><title>Node32</title>
<g id="a_node32"><a xlink:href="class_i_web_view_control.html" target="_top" xlink:title="A control that allows the embedding of HTML UI inside an IGraphics context using a platform&#45;native we...">
<polygon fill="white" stroke="black" points="123,-646.5 123,-665.5 218,-665.5 218,-646.5 123,-646.5"/>
<text text-anchor="middle" x="170.5" y="-653.5" font-family="Helvetica,sans-Serif" font-size="10.00">IWebViewControl</text>
</a>
</g>
</g>
<!-- Node1&#45;&gt;Node32 -->
<g id="edge31" class="edge"><title>Node1&#45;&gt;Node32</title>
<path fill="none" stroke="midnightblue" d="M29.9183,-895.306C36.6536,-843.661 57.2442,-706.156 89,-675 98.0202,-666.15 110.351,-661.14 122.651,-658.374"/>
<polygon fill="midnightblue" stroke="midnightblue" points="26.4156,-895.107 28.629,-905.468 33.36,-895.988 26.4156,-895.107"/>
</g>
<!-- Node33 -->
<g id="node33" class="node"><title>Node33</title>
<g id="a_node33"><a xlink:href="class_test_animation_control.html" target="_top" xlink:title="Control to test animation. ">
<polygon fill="white" stroke="black" points="111,-608.5 111,-627.5 230,-627.5 230,-608.5 111,-608.5"/>
<text text-anchor="middle" x="170.5" y="-615.5" font-family="Helvetica,sans-Serif" font-size="10.00">TestAnimationControl</text>
</a>
</g>
</g>
<!-- Node1&#45;&gt;Node33 -->
<g id="edge32" class="edge"><title>Node1&#45;&gt;Node33</title>
<path fill="none" stroke="midnightblue" d="M29.1761,-895.285C34.4343,-838.127 52.4721,-674.045 89,-637 95.0493,-630.865 102.685,-626.562 110.831,-623.569"/>
<polygon fill="midnightblue" stroke="midnightblue" points="25.6674,-895.229 28.2694,-905.5 32.64,-895.848 25.6674,-895.229"/>
</g>
<!-- Node34 -->
<g id="node34" class="node"><title>Node34</title>
<g id="a_node34"><a xlink:href="class_test_bezier_control.html" target="_top" xlink:title="Control to test drawing bezier curves. ">
<polygon fill="white" stroke="black" points="120.5,-570.5 120.5,-589.5 220.5,-589.5 220.5,-570.5 120.5,-570.5"/>
<text text-anchor="middle" x="170.5" y="-577.5" font-family="Helvetica,sans-Serif" font-size="10.00">TestBezierControl</text>
</a>
</g>
</g>
<!-- Node1&#45;&gt;Node34 -->
<g id="edge33" class="edge"><title>Node1&#45;&gt;Node34</title>
<path fill="none" stroke="midnightblue" d="M28.6186,-895.082C32.5356,-832.584 47.7072,-641.96 89,-599 97.2593,-590.407 108.625,-585.389 120.214,-582.531"/>
<polygon fill="midnightblue" stroke="midnightblue" points="25.117,-895.006 28.0144,-905.197 32.1045,-895.423 25.117,-895.006"/>
</g>
<!-- Node35 -->
<g id="node35" class="node"><title>Node35</title>
<g id="a_node35"><a xlink:href="class_test_color_control.html" target="_top" xlink:title="Control to colors. ">
<polygon fill="white" stroke="black" points="123,-532.5 123,-551.5 218,-551.5 218,-532.5 123,-532.5"/>
<text text-anchor="middle" x="170.5" y="-539.5" font-family="Helvetica,sans-Serif" font-size="10.00">TestColorControl</text>
</a>
</g>
</g>
<!-- Node1&#45;&gt;Node35 -->
<g id="edge34" class="edge"><title>Node1&#45;&gt;Node35</title>
<path fill="none" stroke="midnightblue" d="M28.1518,-895.368C30.7817,-828.35 42.8067,-610.04 89,-561 97.7628,-551.697 110.162,-546.566 122.611,-543.831"/>
<polygon fill="midnightblue" stroke="midnightblue" points="24.6522,-895.298 27.7849,-905.419 31.6475,-895.553 24.6522,-895.298"/>
</g>
<!-- Node36 -->
<g id="node36" class="node"><title>Node36</title>
<g id="a_node36"><a xlink:href="class_test_cursor_control.html" target="_top" xlink:title="Control to test changing the platform cursor. ">
<polygon fill="white" stroke="black" points="120,-494.5 120,-513.5 221,-513.5 221,-494.5 120,-494.5"/>
<text text-anchor="middle" x="170.5" y="-501.5" font-family="Helvetica,sans-Serif" font-size="10.00">TestCursorControl</text>
</a>
</g>
</g>
<!-- Node1&#45;&gt;Node36 -->
<g id="edge35" class="edge"><title>Node1&#45;&gt;Node36</title>
<path fill="none" stroke="midnightblue" d="M27.792,-895.166C29.262,-823.323 37.995,-578.046 89,-523 97.1007,-514.258 108.411,-509.187 119.997,-506.326"/>
<polygon fill="midnightblue" stroke="midnightblue" points="24.2869,-895.428 27.608,-905.489 31.2858,-895.553 24.2869,-895.428"/>
</g>
<!-- Node37 -->
<g id="node37" class="node"><title>Node37</title>
<g id="a_node37"><a xlink:href="class_test_draw_context_control.html" target="_top" xlink:title="Control to test obtaining a drawing API (NanoVG, LICE, Cairo, AGG etc) context and using that API wit...">
<polygon fill="white" stroke="black" points="105,-456.5 105,-475.5 236,-475.5 236,-456.5 105,-456.5"/>
<text text-anchor="middle" x="170.5" y="-463.5" font-family="Helvetica,sans-Serif" font-size="10.00">TestDrawContextControl</text>
</a>
</g>
</g>
<!-- Node1&#45;&gt;Node37 -->
<g id="edge36" class="edge"><title>Node1&#45;&gt;Node37</title>
<path fill="none" stroke="midnightblue" d="M27.4875,-895.224C27.8531,-819.092 33.1035,-546.151 89,-485 93.4566,-480.124 98.9108,-476.388 104.86,-473.538"/>
<polygon fill="midnightblue" stroke="midnightblue" points="23.9874,-895.33 27.4637,-905.338 30.9874,-895.346 23.9874,-895.33"/>
</g>
<!-- Node38 -->
<g id="node38" class="node"><title>Node38</title>
<g id="a_node38"><a xlink:href="class_test_drop_shadow_control.html" target="_top" xlink:title="Control to test layer drop shadows. ">
<polygon fill="white" stroke="black" points="105,-418.5 105,-437.5 236,-437.5 236,-418.5 105,-418.5"/>
<text text-anchor="middle" x="170.5" y="-425.5" font-family="Helvetica,sans-Serif" font-size="10.00">TestDropShadowControl</text>
</a>
</g>
</g>
<!-- Node1&#45;&gt;Node38 -->
<g id="edge37" class="edge"><title>Node1&#45;&gt;Node38</title>
<path fill="none" stroke="midnightblue" d="M27.2309,-895.053C26.5637,-814.489 28.2528,-514.223 89,-447 93.4287,-442.099 98.8651,-438.346 104.804,-435.487"/>
<polygon fill="midnightblue" stroke="midnightblue" points="23.7336,-895.329 27.3397,-905.291 30.7332,-895.254 23.7336,-895.329"/>
</g>
<!-- Node39 -->
<g id="node39" class="node"><title>Node39</title>
<g id="a_node39"><a xlink:href="class_test_flex_box_control.html" target="_top" xlink:title="Control to test IGraphicsFlexBox. ">
<polygon fill="white" stroke="black" points="117,-380.5 117,-399.5 224,-399.5 224,-380.5 117,-380.5"/>
<text text-anchor="middle" x="170.5" y="-387.5" font-family="Helvetica,sans-Serif" font-size="10.00">TestFlexBoxControl</text>
</a>
</g>
</g>
<!-- Node1&#45;&gt;Node39 -->
<g id="edge38" class="edge"><title>Node1&#45;&gt;Node39</title>
<path fill="none" stroke="midnightblue" d="M28.5818,-895.196C33.6177,-806.197 55.9274,-445.958 89,-409 96.2776,-400.867 106.329,-395.889 116.866,-392.909"/>
<polygon fill="midnightblue" stroke="midnightblue" points="25.0814,-895.107 28.0196,-905.286 32.0706,-895.496 25.0814,-895.107"/>
</g>
<!-- Node40 -->
<g id="node40" class="node"><title>Node40</title>
<g id="a_node40"><a xlink:href="class_test_font_control.html" target="_top" xlink:title="Control to test drawing fonts. ">
<polygon fill="white" stroke="black" points="125,-342.5 125,-361.5 216,-361.5 216,-342.5 125,-342.5"/>
<text text-anchor="middle" x="170.5" y="-349.5" font-family="Helvetica,sans-Serif" font-size="10.00">TestFontControl</text>
</a>
</g>
</g>
<!-- Node1&#45;&gt;Node40 -->
<g id="edge39" class="edge"><title>Node1&#45;&gt;Node40</title>
<path fill="none" stroke="midnightblue" d="M28.4046,-895.21C32.8325,-802.165 53.4578,-411.053 89,-371 98.0544,-360.796 111.474,-355.549 124.773,-352.985"/>
<polygon fill="midnightblue" stroke="midnightblue" points="24.8962,-895.309 27.9254,-905.462 31.8886,-895.636 24.8962,-895.309"/>
</g>
<!-- Node41 -->
<g id="node41" class="node"><title>Node41</title>
<g id="a_node41"><a xlink:href="class_test_g_l_control.html" target="_top" xlink:title="Control to test Drawing in using OpenGL in supporting backends. ">
<polygon fill="white" stroke="black" points="129,-304.5 129,-323.5 212,-323.5 212,-304.5 129,-304.5"/>
<text text-anchor="middle" x="170.5" y="-311.5" font-family="Helvetica,sans-Serif" font-size="10.00">TestGLControl</text>
</a>
</g>
</g>
<!-- Node1&#45;&gt;Node41 -->
<g id="edge40" class="edge"><title>Node1&#45;&gt;Node41</title>
<path fill="none" stroke="midnightblue" d="M28.257,-895.06C32.1258,-797.803 51.0041,-376.134 89,-333 98.9663,-321.686 114.299,-316.457 128.92,-314.224"/>
<polygon fill="midnightblue" stroke="midnightblue" points="24.7514,-895.136 27.8593,-905.265 31.7461,-895.409 24.7514,-895.136"/>
</g>
<!-- Node42 -->
<g id="node42" class="node"><title>Node42</title>
<g id="a_node42"><a xlink:href="class_test_image_control.html" target="_top" xlink:title="Control to test drawing bitmaps. ">
<polygon fill="white" stroke="black" points="120.5,-266.5 120.5,-285.5 220.5,-285.5 220.5,-266.5 120.5,-266.5"/>
<text text-anchor="middle" x="170.5" y="-273.5" font-family="Helvetica,sans-Serif" font-size="10.00">TestImageControl</text>
</a>
</g>
</g>
<!-- Node1&#45;&gt;Node42 -->
<g id="edge41" class="edge"><title>Node1&#45;&gt;Node42</title>
<path fill="none" stroke="midnightblue" d="M28.1218,-895.037C31.4486,-793.917 48.5295,-341.242 89,-295 97.0386,-285.815 108.614,-280.635 120.491,-277.813"/>
<polygon fill="midnightblue" stroke="midnightblue" points="24.6209,-895.011 27.7979,-905.118 31.6173,-895.236 24.6209,-895.011"/>
</g>
<!-- Node43 -->
<g id="node43" class="node"><title>Node43</title>
<g id="a_node43"><a xlink:href="class_test_keyboard_control.html" target="_top" xlink:title="Control to test keyboard input. ">
<polygon fill="white" stroke="black" points="113.5,-228.5 113.5,-247.5 227.5,-247.5 227.5,-228.5 113.5,-228.5"/>
<text text-anchor="middle" x="170.5" y="-235.5" font-family="Helvetica,sans-Serif" font-size="10.00">TestKeyboardControl</text>
</a>
</g>
</g>
<!-- Node1&#45;&gt;Node43 -->
<g id="edge42" class="edge"><title>Node1&#45;&gt;Node43</title>
<path fill="none" stroke="midnightblue" d="M28.0072,-894.815C30.8324,-789.533 46.0778,-306.325 89,-257 95.41,-249.634 104.094,-244.84 113.393,-241.773"/>
<polygon fill="midnightblue" stroke="midnightblue" points="24.503,-894.931 27.741,-905.019 31.5007,-895.114 24.503,-894.931"/>
</g>
<!-- Node44 -->
<g id="node44" class="node"><title>Node44</title>
<g id="a_node44"><a xlink:href="class_test_m_p_s_control.html" target="_top" xlink:title="Control to test IGraphicsNanoVG with Metal Performance Shaders. ">
<polygon fill="white" stroke="black" points="125,-190.5 125,-209.5 216,-209.5 216,-190.5 125,-190.5"/>
<text text-anchor="middle" x="170.5" y="-197.5" font-family="Helvetica,sans-Serif" font-size="10.00">TestMPSControl</text>
</a>
</g>
</g>
<!-- Node1&#45;&gt;Node44 -->
<g id="edge43" class="edge"><title>Node1&#45;&gt;Node44</title>
<path fill="none" stroke="midnightblue" d="M27.8866,-895.372C30.1828,-787.682 43.5146,-271.538 89,-219 97.929,-208.686 111.317,-203.411 124.624,-200.855"/>
<polygon fill="midnightblue" stroke="midnightblue" points="24.3853,-895.404 27.6785,-905.474 31.3838,-895.548 24.3853,-895.404"/>
</g>
<!-- Node45 -->
<g id="node45" class="node"><title>Node45</title>
<g id="a_node45"><a xlink:href="class_test_m_t_control.html" target="_top" xlink:title="Control to test multi touch. ">
<polygon fill="white" stroke="black" points="129,-152.5 129,-171.5 212,-171.5 212,-152.5 129,-152.5"/>
<text text-anchor="middle" x="170.5" y="-159.5" font-family="Helvetica,sans-Serif" font-size="10.00">TestMTControl</text>
</a>
</g>
</g>
<!-- Node1&#45;&gt;Node45 -->
<g id="edge44" class="edge"><title>Node1&#45;&gt;Node45</title>
<path fill="none" stroke="midnightblue" d="M27.7921,-895.353C29.6209,-784.149 41.0266,-236.667 89,-181 98.843,-169.578 114.154,-164.33 128.792,-162.112"/>
<polygon fill="midnightblue" stroke="midnightblue" points="24.2906,-895.425 27.6327,-905.479 31.2897,-895.535 24.2906,-895.425"/>
</g>
<!-- Node46 -->
<g id="node46" class="node"><title>Node46</title>
<g id="a_node46"><a xlink:href="class_test_shadow_gradient_control.html" target="_top" xlink:title="Control to test drawing shadows with gradients. ">
<polygon fill="white" stroke="black" points="96,-114.5 96,-133.5 245,-133.5 245,-114.5 96,-114.5"/>
<text text-anchor="middle" x="170.5" y="-121.5" font-family="Helvetica,sans-Serif" font-size="10.00">TestShadowGradientControl</text>
</a>
</g>
</g>
<!-- Node1&#45;&gt;Node46 -->
<g id="edge45" class="edge"><title>Node1&#45;&gt;Node46</title>
<path fill="none" stroke="midnightblue" d="M27.71,-895.056C29.1025,-779.769 38.5761,-201.753 89,-143 92.2732,-139.186 96.1561,-136.06 100.421,-133.505"/>
<polygon fill="midnightblue" stroke="midnightblue" points="24.208,-895.218 27.5938,-905.257 31.2076,-895.298 24.208,-895.218"/>
</g>
<!-- Node47 -->
<g id="node47" class="node"><title>Node47</title>
<g id="a_node47"><a xlink:href="class_test_size_control.html" target="_top" xlink:title="Control to display the size of a region. ">
<polygon fill="white" stroke="black" points="125.5,-76.5 125.5,-95.5 215.5,-95.5 215.5,-76.5 125.5,-76.5"/>
<text text-anchor="middle" x="170.5" y="-83.5" font-family="Helvetica,sans-Serif" font-size="10.00">TestSizeControl</text>
</a>
</g>
</g>
<!-- Node1&#45;&gt;Node47 -->
<g id="edge46" class="edge"><title>Node1&#45;&gt;Node47</title>
<path fill="none" stroke="midnightblue" d="M27.63,-895.191C28.5842,-776.907 36.0598,-166.918 89,-105 98.0518,-94.4133 111.801,-89.1214 125.389,-86.6319"/>
<polygon fill="midnightblue" stroke="midnightblue" points="24.1292,-895.308 27.555,-905.334 31.129,-895.36 24.1292,-895.308"/>
</g>
<!-- Node48 -->
<g id="node48" class="node"><title>Node48</title>
<g id="a_node48"><a xlink:href="class_test_s_v_g_control.html" target="_top" xlink:title="Control to test drawing SVGs. ">
<polygon fill="white" stroke="black" points="125,-38.5 125,-57.5 216,-57.5 216,-38.5 125,-38.5"/>
<text text-anchor="middle" x="170.5" y="-45.5" font-family="Helvetica,sans-Serif" font-size="10.00">TestSVGControl</text>
</a>
</g>
</g>
<!-- Node1&#45;&gt;Node48 -->
<g id="edge47" class="edge"><title>Node1&#45;&gt;Node48</title>
<path fill="none" stroke="midnightblue" d="M27.5577,-895.403C28.0901,-774.415 33.528,-132.101 89,-67 97.9407,-56.5073 111.496,-51.2122 124.948,-48.6921"/>
<polygon fill="midnightblue" stroke="midnightblue" points="24.0577,-895.434 27.52,-905.447 31.0576,-895.46 24.0577,-895.434"/>
</g>
<!-- Node49 -->
<g id="node49" class="node"><title>Node49</title>
<g id="a_node49"><a xlink:href="class_test_text_control.html" target="_top" xlink:title="Control to test drawing text. ">
<polygon fill="white" stroke="black" points="126,-0.5 126,-19.5 215,-19.5 215,-0.5 126,-0.5"/>
<text text-anchor="middle" x="170.5" y="-7.5" font-family="Helvetica,sans-Serif" font-size="10.00">TestTextControl</text>
</a>
</g>
</g>
<!-- Node1&#45;&gt;Node49 -->
<g id="edge48" class="edge"><title>Node1&#45;&gt;Node49</title>
<path fill="none" stroke="midnightblue" d="M27.4932,-895.299C27.6278,-770.889 31.0415,-97.233 89,-29 98.1104,-18.2745 112.043,-12.9764 125.77,-10.5221"/>
<polygon fill="midnightblue" stroke="midnightblue" points="23.9933,-895.308 27.4887,-905.309 30.9933,-895.311 23.9933,-895.308"/>
</g>
</g>
</svg>
